# xmcd
#
# Track frame offsets: 
#        150
#        27324
#        56519
#        105021
#
# Disc length: 1683 seconds
#
# Revision: 0
# Processed by: cddbd v1.5.2PL0 Copyright (c) Steve Scherf et al.
# Submitted via: ExactAudioCopy v0.99pb5
#
DISCID=23069104
DTITLE=Józef i Jan Skrzek - Dwa Braty
DYEAR=2015
DGENRE=Blues
TTITLE0=01.Freedom
TTITLE1=02.Sztajger
TTITLE2=03.Toczy Siê Ko³o Historii
TTITLE3=04.Figo-Fago
EXTD=
EXTT0=
EXTT1=
EXTT2=
EXTT3=
PLAYORDER=
